{
  "accessors": [
    {
      "bufferView": 1,
      "componentType": 5126,
      "count": 264,
      "max": [
        0.95326000452041626,
        3.0831799507141113,
        1.0987800359725952
      ],
      "min": [
        -0.95326000452041626,
        1.3586000204086304,
        -1.1171400547027588
      ],
      "type": "VEC3"
    },
    {
      "bufferView": 1,
      "byteOffset": 3168,
      "componentType": 5126,
      "count": 264,
      "max": [
        0.92601531744003296,
        0.99956393241882324,
        0.99255836009979248
      ],
      "min": [
        -0.92601531744003296,
        -0.99972200393676758,
        -0.97510606050491333
      ],
      "type": "VEC3"
    },
    {
      "bufferView": 0,
      "componentType": 5125,
      "count": 480,
      "max": [
        263
      ],
      "min": [
        0
      ],
      "type": "SCALAR"
    },
    {
      "bufferView": 1,
      "byteOffset": 6336,
      "componentType": 5126,
      "count": 360,
      "max": [
        1.1320400238037109,
        2.5462799072265625,
        0.94388002157211304
      ],
      "min": [
        -1.1320400238037109,
        0.00036000000545755029,
        -0.98537999391555786
      ],
      "type": "VEC3"
    },
    {
      "bufferView": 1,
      "byteOffset": 10656,
      "componentType": 5126,
      "count": 360,
      "max": [
        1,
        1,
        0.99965071678161621
      ],
      "min": [
        -1,
        -1,
        -1
      ],
      "type": "VEC3"
    },
    {
      "bufferView": 0,
      "byteOffset": 1920,
      "componentType": 5125,
      "count": 696,
      "max": [
        359
      ],
      "min": [
        0
      ],
      "type": "SCALAR"
    }
  ],
  "asset": {
    "generator": "Sketchfab (OSG glTF plugin)",
    "version": "2.0"
  },
  "bufferViews": [
    {
      "buffer": 0,
      "byteLength": 4704,
      "byteOffset": 0,
      "name": "floatBufferViews",
      "target": 34963
    },
    {
      "buffer": 0,
      "byteLength": 14976,
      "byteOffset": 4704,
      "byteStride": 12,
      "name": "floatBufferViews",
      "target": 34962
    }
  ],
  "buffers": [
    {
      "byteLength": 19680,
      "uri": "scene.bin"
    }
  ],
  "materials": [
    {
      "doubleSided": true,
      "emissiveFactor": [
        0,
        0,
        0
      ],
      "name": "Lounge Chair1 Material",
      "pbrMetallicRoughness": {
        "baseColorFactor": [
          0.30084967610000002,
          0.80000007149999997,
          0.131403774,
          1
        ],
        "metallicFactor": 0,
        "roughnessFactor": 0.59999999999999998
      }
    },
    {
      "doubleSided": true,
      "emissiveFactor": [
        0,
        0,
        0
      ],
      "name": "Lounge Chair1 Details",
      "pbrMetallicRoughness": {
        "baseColorFactor": [
          0.62396043540000001,
          0.60382741689999997,
          0.76815110450000001,
          1
        ],
        "metallicFactor": 0,
        "roughnessFactor": 0.59999999999999998
      }
    }
  ],
  "meshes": [
    {
      "name": "Lounge Chair1_0",
      "primitives": [
        {
          "attributes": {
            "NORMAL": 1,
            "POSITION": 0
          },
          "indices": 2,
          "material": 0,
          "mode": 4
        }
      ]
    },
    {
      "name": "Lounge Chair1_1",
      "primitives": [
        {
          "attributes": {
            "NORMAL": 4,
            "POSITION": 3
          },
          "indices": 5,
          "material": 1,
          "mode": 4
        }
      ]
    }
  ],
  "nodes": [
    {
      "children": [
        1
      ],
      "name": "RootNode (gltf orientation matrix)",
      "rotation": [
        -0.70710678118654746,
        -0,
        -0,
        0.70710678118654757
      ]
    },
    {
      "children": [
        2
      ],
      "name": "RootNode (model correction matrix)"
    },
    {
      "children": [
        3
      ],
      "name": "Root"
    },
    {
      "children": [
        4
      ],
      "matrix": [
        0.31500000000000006,
        0,
        0,
        0,
        0,
        0,
        0.31500000000000006,
        0,
        0,
        -0.31500000000000006,
        0,
        0,
        0,
        0,
        0,
        1
      ],
      "name": "Lounge Chair1"
    },
    {
      "children": [
        5,
        6
      ],
      "name": "Geode"
    },
    {
      "mesh": 0,
      "name": "Lounge Chair1_0"
    },
    {
      "mesh": 1,
      "name": "Lounge Chair1_1"
    }
  ],
  "scene": 0,
  "scenes": [
    {
      "name": "OSG_Scene",
      "nodes": [
        0
      ]
    }
  ]
}

