{
  "accessors": [
    {
      "bufferView": 2,
      "componentType": 5126,
      "count": 3950,
      "max": [
        0.99865001440048218,
        0.99865001440048218,
        5.4670901298522949
      ],
      "min": [
        -0.99865001440048218,
        -0.99865001440048218,
        0
      ],
      "type": "VEC3"
    },
    {
      "bufferView": 2,
      "byteOffset": 47400,
      "componentType": 5126,
      "count": 3950,
      "max": [
        1,
        1,
        1
      ],
      "min": [
        -1,
        -1,
        -1
      ],
      "type": "VEC3"
    },
    {
      "bufferView": 3,
      "componentType": 5126,
      "count": 3950,
      "max": [
        0,
        0,
        0,
        1
      ],
      "min": [
        0,
        0,
        0,
        1
      ],
      "type": "VEC4"
    },
    {
      "bufferView": 0,
      "componentType": 5125,
      "count": 22980,
      "max": [
        3949
      ],
      "min": [
        0
      ],
      "type": "SCALAR"
    },
    {
      "bufferView": 2,
      "byteOffset": 94800,
      "componentType": 5126,
      "count": 17947,
      "max": [
        0.99957001209259033,
        0.99940997362136841,
        5.4676599502563477
      ],
      "min": [
        -0.99962997436523438,
        -0.99962997436523438,
        0.62683999538421631
      ],
      "type": "VEC3"
    },
    {
      "bufferView": 2,
      "byteOffset": 310164,
      "componentType": 5126,
      "count": 17947,
      "max": [
        0.9998963475227356,
        0.99974286556243896,
        1
      ],
      "min": [
        -0.9999656081199646,
        -0.9999653697013855,
        -3.000029937538784e-05
      ],
      "type": "VEC3"
    },
    {
      "bufferView": 3,
      "byteOffset": 63200,
      "componentType": 5126,
      "count": 17947,
      "max": [
        0,
        0,
        0,
        1
      ],
      "min": [
        0,
        0,
        0,
        1
      ],
      "type": "VEC4"
    },
    {
      "bufferView": 0,
      "byteOffset": 91920,
      "componentType": 5125,
      "count": 48960,
      "max": [
        17946
      ],
      "min": [
        0
      ],
      "type": "SCALAR"
    },
    {
      "bufferView": 2,
      "byteOffset": 525528,
      "componentType": 5126,
      "count": 1509,
      "max": [
        0.3799000084400177,
        -0.91940999031066895,
        0.32376998662948608
      ],
      "min": [
        -0.38881999254226685,
        -1.0017299652099609,
        0.093039996922016144
      ],
      "type": "VEC3"
    },
    {
      "bufferView": 2,
      "byteOffset": 543636,
      "componentType": 5126,
      "count": 1509,
      "max": [
        0.99890488386154175,
        0.99999934434890747,
        0.99999672174453735
      ],
      "min": [
        -0.99990254640579224,
        -0.99999946355819702,
        -0.99999278783798218
      ],
      "type": "VEC3"
    },
    {
      "bufferView": 3,
      "byteOffset": 350352,
      "componentType": 5126,
      "count": 1509,
      "max": [
        0,
        0,
        0,
        1
      ],
      "min": [
        0,
        0,
        0,
        1
      ],
      "type": "VEC4"
    },
    {
      "bufferView": 0,
      "byteOffset": 287760,
      "componentType": 5125,
      "count": 4560,
      "max": [
        1508
      ],
      "min": [
        0
      ],
      "type": "SCALAR"
    },
    {
      "bufferView": 2,
      "byteOffset": 561744,
      "componentType": 5126,
      "count": 627,
      "max": [
        0.47679999470710754,
        0.093000002205371857,
        5.4676098823547363
      ],
      "min": [
        -0.51784998178482056,
        -0.084550000727176666,
        5.4561100006103516
      ],
      "type": "VEC3"
    },
    {
      "bufferView": 2,
      "byteOffset": 569268,
      "componentType": 5126,
      "count": 627,
      "max": [
        1,
        1,
        1
      ],
      "min": [
        -1,
        -1,
        -1
      ],
      "type": "VEC3"
    },
    {
      "bufferView": 3,
      "byteOffset": 374496,
      "componentType": 5126,
      "count": 627,
      "max": [
        0,
        0,
        0,
        1
      ],
      "min": [
        0,
        0,
        0,
        1
      ],
      "type": "VEC4"
    },
    {
      "bufferView": 0,
      "byteOffset": 306000,
      "componentType": 5125,
      "count": 2376,
      "max": [
        626
      ],
      "min": [
        0
      ],
      "type": "SCALAR"
    },
    {
      "bufferView": 2,
      "byteOffset": 576792,
      "componentType": 5126,
      "count": 540,
      "max": [
        0.99792999029159546,
        0.99792999029159546,
        5.4670801162719727
      ],
      "min": [
        -0.99792999029159546,
        -0.99792999029159546,
        5.4165802001953125
      ],
      "type": "VEC3"
    },
    {
      "bufferView": 2,
      "byteOffset": 583272,
      "componentType": 5126,
      "count": 540,
      "max": [
        0.99856293201446533,
        0.99856293201446533,
        1
      ],
      "min": [
        -0.99856293201446533,
        -0.99856460094451904,
        -0.58771288394927979
      ],
      "type": "VEC3"
    },
    {
      "bufferView": 3,
      "byteOffset": 384528,
      "componentType": 5126,
      "count": 540,
      "max": [
        0.83654248714447021,
        0.58641117811203003,
        0.9914931058883667,
        1
      ],
      "min": [
        -0.78984302282333374,
        -0.99999427795410156,
        -0.99148565530776978,
        1
      ],
      "type": "VEC4"
    },
    {
      "bufferView": 1,
      "componentType": 5126,
      "count": 540,
      "max": [
        0.99968999624252319,
        1.000309944152832
      ],
      "min": [
        -0.000699999975040555,
        -0.00060000002849847078
      ],
      "type": "VEC2"
    },
    {
      "bufferView": 0,
      "byteOffset": 315504,
      "componentType": 5125,
      "count": 2880,
      "max": [
        539
      ],
      "min": [
        0
      ],
      "type": "SCALAR"
    },
    {
      "bufferView": 2,
      "byteOffset": 589752,
      "componentType": 5126,
      "count": 3362,
      "max": [
        1.0005999803543091,
        0.99866002798080444,
        0.53687000274658203
      ],
      "min": [
        -0.99671000242233276,
        -0.99865001440048218,
        0
      ],
      "type": "VEC3"
    },
    {
      "bufferView": 2,
      "byteOffset": 630096,
      "componentType": 5126,
      "count": 3362,
      "max": [
        1,
        1,
        1
      ],
      "min": [
        -1,
        -1,
        -1
      ],
      "type": "VEC3"
    },
    {
      "bufferView": 3,
      "byteOffset": 393168,
      "componentType": 5126,
      "count": 3362,
      "max": [
        0,
        0,
        0,
        1
      ],
      "min": [
        0,
        0,
        0,
        1
      ],
      "type": "VEC4"
    },
    {
      "bufferView": 0,
      "byteOffset": 327024,
      "componentType": 5125,
      "count": 19452,
      "max": [
        3361
      ],
      "min": [
        0
      ],
      "type": "SCALAR"
    },
    {
      "bufferView": 2,
      "byteOffset": 670440,
      "componentType": 5126,
      "count": 1645,
      "max": [
        0.85953998565673828,
        0.85759997367858887,
        0.53744000196456909
      ],
      "min": [
        -0.85565000772476196,
        -0.85759001970291138,
        0.53386998176574707
      ],
      "type": "VEC3"
    },
    {
      "bufferView": 2,
      "byteOffset": 690180,
      "componentType": 5126,
      "count": 1645,
      "max": [
        0.71844446659088135,
        0.71845942735671997,
        1
      ],
      "min": [
        -0.71847403049468994,
        -0.71845942735671997,
        0.69554156064987183
      ],
      "type": "VEC3"
    },
    {
      "bufferView": 3,
      "byteOffset": 446960,
      "componentType": 5126,
      "count": 1645,
      "max": [
        0,
        0,
        0,
        1
      ],
      "min": [
        0,
        0,
        0,
        1
      ],
      "type": "VEC4"
    },
    {
      "bufferView": 0,
      "byteOffset": 404832,
      "componentType": 5125,
      "count": 4500,
      "max": [
        1644
      ],
      "min": [
        0
      ],
      "type": "SCALAR"
    },
    {
      "bufferView": 2,
      "byteOffset": 709920,
      "componentType": 5126,
      "count": 1641,
      "max": [
        0.20241999626159668,
        -0.97220999002456665,
        0.18404999375343323
      ],
      "min": [
        -0.22315999865531921,
        -0.99950999021530151,
        0.056460000574588776
      ],
      "type": "VEC3"
    },
    {
      "bufferView": 2,
      "byteOffset": 729612,
      "componentType": 5126,
      "count": 1641,
      "max": [
        0.99925023317337036,
        0.99996131658554077,
        0.9999966025352478
      ],
      "min": [
        -0.99943345785140991,
        -0.99996143579483032,
        -1
      ],
      "type": "VEC3"
    },
    {
      "bufferView": 3,
      "byteOffset": 473280,
      "componentType": 5126,
      "count": 1641,
      "max": [
        0,
        0,
        0,
        1
      ],
      "min": [
        0,
        0,
        0,
        1
      ],
      "type": "VEC4"
    },
    {
      "bufferView": 0,
      "byteOffset": 422832,
      "componentType": 5125,
      "count": 4548,
      "max": [
        1640
      ],
      "min": [
        0
      ],
      "type": "SCALAR"
    },
    {
      "bufferView": 2,
      "byteOffset": 749304,
      "componentType": 5126,
      "count": 627,
      "max": [
        0.47874000668525696,
        0.093000002205371857,
        0.5374000072479248
      ],
      "min": [
        -0.51590001583099365,
        -0.084540002048015594,
        0.52590000629425049
      ],
      "type": "VEC3"
    },
    {
      "bufferView": 2,
      "byteOffset": 756828,
      "componentType": 5126,
      "count": 627,
      "max": [
        1,
        1,
        1
      ],
      "min": [
        -1,
        -1,
        -1
      ],
      "type": "VEC3"
    },
    {
      "bufferView": 3,
      "byteOffset": 499536,
      "componentType": 5126,
      "count": 627,
      "max": [
        0,
        0,
        0,
        1
      ],
      "min": [
        0,
        0,
        0,
        1
      ],
      "type": "VEC4"
    },
    {
      "bufferView": 0,
      "byteOffset": 441024,
      "componentType": 5125,
      "count": 2376,
      "max": [
        626
      ],
      "min": [
        0
      ],
      "type": "SCALAR"
    },
    {
      "bufferView": 2,
      "byteOffset": 764352,
      "componentType": 5126,
      "count": 540,
      "max": [
        0.99987000226974487,
        0.99792999029159546,
        0.53685998916625977
      ],
      "min": [
        -0.99598997831344604,
        -0.99792999029159546,
        0.48636001348495483
      ],
      "type": "VEC3"
    },
    {
      "bufferView": 2,
      "byteOffset": 770832,
      "componentType": 5126,
      "count": 540,
      "max": [
        0.99856460094451904,
        0.99856460094451904,
        1
      ],
      "min": [
        -0.99856293201446533,
        -0.99856293201446533,
        -0.58771288394927979
      ],
      "type": "VEC3"
    },
    {
      "bufferView": 3,
      "byteOffset": 509568,
      "componentType": 5126,
      "count": 540,
      "max": [
        0.83651572465896606,
        0.58636397123336792,
        0.9914926290512085,
        1
      ],
      "min": [
        -0.78985631465911865,
        -0.99999344348907471,
        -0.99148619174957275,
        1
      ],
      "type": "VEC4"
    },
    {
      "bufferView": 1,
      "byteOffset": 4320,
      "componentType": 5126,
      "count": 540,
      "max": [
        0.99968999624252319,
        1.000309944152832
      ],
      "min": [
        -0.000699999975040555,
        -0.00060000002849847078
      ],
      "type": "VEC2"
    },
    {
      "bufferView": 0,
      "byteOffset": 450528,
      "componentType": 5125,
      "count": 2880,
      "max": [
        539
      ],
      "min": [
        0
      ],
      "type": "SCALAR"
    }
  ],
  "asset": {
    "generator": "Sketchfab (OSG glTF plugin)",
    "version": "2.0"
  },
  "bufferViews": [
    {
      "buffer": 0,
      "byteLength": 462048,
      "byteOffset": 0,
      "name": "floatBufferViews",
      "target": 34963
    },
    {
      "buffer": 0,
      "byteLength": 8640,
      "byteOffset": 462048,
      "byteStride": 8,
      "name": "floatBufferViews",
      "target": 34962
    },
    {
      "buffer": 0,
      "byteLength": 777312,
      "byteOffset": 470688,
      "byteStride": 12,
      "name": "floatBufferViews",
      "target": 34962
    },
    {
      "buffer": 0,
      "byteLength": 518208,
      "byteOffset": 1248000,
      "byteStride": 16,
      "name": "floatBufferViews",
      "target": 34962
    }
  ],
  "buffers": [
    {
      "byteLength": 1766208,
      "uri": "scene.bin"
    }
  ],
  "extensionsRequired": [
    "KHR_materials_pbrSpecularGlossiness"
  ],
  "extensionsUsed": [
    "KHR_materials_pbrSpecularGlossiness"
  ],
  "images": [
    {
      "uri": "textures/blue_diffuse.png"
    },
    {
      "uri": "textures/blue_emissive.png"
    }
  ],
  "materials": [
    {
      "doubleSided": true,
      "emissiveFactor": [
        0,
        0,
        0
      ],
      "extensions": {
        "KHR_materials_pbrSpecularGlossiness": {
          "diffuseFactor": [
            0.026383080400000002,
            0.026383080400000002,
            0.026383080400000002,
            1
          ],
          "glossinessFactor": 0.38586128050000001,
          "specularFactor": [
            0.1410743112,
            0.1410743112,
            0.1410743112
          ]
        }
      },
      "name": "base"
    },
    {
      "doubleSided": true,
      "emissiveFactor": [
        0,
        0,
        0
      ],
      "extensions": {
        "KHR_materials_pbrSpecularGlossiness": {
          "diffuseFactor": [
            0,
            0,
            0,
            1
          ],
          "glossinessFactor": 0,
          "specularFactor": [
            0,
            0,
            0
          ]
        }
      },
      "name": "dot"
    },
    {
      "doubleSided": true,
      "emissiveFactor": [
        0,
        0,
        0
      ],
      "extensions": {
        "KHR_materials_pbrSpecularGlossiness": {
          "diffuseFactor": [
            0.18272736389999999,
            0.18272736389999999,
            0.18272736389999999,
            1
          ],
          "glossinessFactor": 0.34317835369999999,
          "specularFactor": [
            0.45304591960000001,
            0.41816461110000003,
            0.41816461110000003
          ]
        }
      },
      "name": "gray"
    },
    {
      "doubleSided": true,
      "emissiveFactor": [
        0,
        0,
        0
      ],
      "extensions": {
        "KHR_materials_pbrSpecularGlossiness": {
          "diffuseFactor": [
            0.39804560150000001,
            0.39804560150000001,
            0.39804560150000001,
            1
          ],
          "glossinessFactor": 0,
          "specularFactor": [
            1,
            1,
            1
          ]
        }
      },
      "name": "white"
    },
    {
      "doubleSided": true,
      "emissiveFactor": [
        1,
        1,
        1
      ],
      "emissiveTexture": {
        "index": 1,
        "texCoord": 0
      },
      "extensions": {
        "KHR_materials_pbrSpecularGlossiness": {
          "diffuseFactor": [
            1,
            1,
            1,
            1
          ],
          "diffuseTexture": {
            "index": 0,
            "texCoord": 0
          },
          "glossinessFactor": 1,
          "specularFactor": [
            0,
            0,
            0
          ]
        }
      },
      "name": "blue"
    }
  ],
  "meshes": [
    {
      "name": "echo_0",
      "primitives": [
        {
          "attributes": {
            "NORMAL": 1,
            "POSITION": 0,
            "TANGENT": 2
          },
          "indices": 3,
          "material": 0,
          "mode": 4
        }
      ]
    },
    {
      "name": "echo_1",
      "primitives": [
        {
          "attributes": {
            "NORMAL": 5,
            "POSITION": 4,
            "TANGENT": 6
          },
          "indices": 7,
          "material": 1,
          "mode": 4
        }
      ]
    },
    {
      "name": "echo_2",
      "primitives": [
        {
          "attributes": {
            "NORMAL": 9,
            "POSITION": 8,
            "TANGENT": 10
          },
          "indices": 11,
          "material": 2,
          "mode": 4
        }
      ]
    },
    {
      "name": "echo_3",
      "primitives": [
        {
          "attributes": {
            "NORMAL": 13,
            "POSITION": 12,
            "TANGENT": 14
          },
          "indices": 15,
          "material": 3,
          "mode": 4
        }
      ]
    },
    {
      "name": "echo_4",
      "primitives": [
        {
          "attributes": {
            "NORMAL": 17,
            "POSITION": 16,
            "TANGENT": 18,
            "TEXCOORD_0": 19
          },
          "indices": 20,
          "material": 4,
          "mode": 4
        }
      ]
    },
    {
      "name": "echo_dot_0",
      "primitives": [
        {
          "attributes": {
            "NORMAL": 22,
            "POSITION": 21,
            "TANGENT": 23
          },
          "indices": 24,
          "material": 0,
          "mode": 4
        }
      ]
    },
    {
      "name": "echo_dot_1",
      "primitives": [
        {
          "attributes": {
            "NORMAL": 26,
            "POSITION": 25,
            "TANGENT": 27
          },
          "indices": 28,
          "material": 1,
          "mode": 4
        }
      ]
    },
    {
      "name": "echo_dot_2",
      "primitives": [
        {
          "attributes": {
            "NORMAL": 30,
            "POSITION": 29,
            "TANGENT": 31
          },
          "indices": 32,
          "material": 2,
          "mode": 4
        }
      ]
    },
    {
      "name": "echo_dot_3",
      "primitives": [
        {
          "attributes": {
            "NORMAL": 34,
            "POSITION": 33,
            "TANGENT": 35
          },
          "indices": 36,
          "material": 3,
          "mode": 4
        }
      ]
    },
    {
      "name": "echo_dot_4",
      "primitives": [
        {
          "attributes": {
            "NORMAL": 38,
            "POSITION": 37,
            "TANGENT": 39,
            "TEXCOORD_0": 40
          },
          "indices": 41,
          "material": 4,
          "mode": 4
        }
      ]
    }
  ],
  "nodes": [
    {
      "children": [
        1
      ],
      "name": "RootNode (gltf orientation matrix)",
      "rotation": [
        -0.70710678118654746,
        -0,
        -0,
        0.70710678118654757
      ]
    },
    {
      "children": [
        2
      ],
      "name": "RootNode (model correction matrix)"
    },
    {
      "children": [
        3,
        10,
        17,
        19
      ],
      "name": "Root"
    },
    {
      "children": [
        4
      ],
      "matrix": [
        1.00135,
        0,
        0,
        0,
        0,
        1.00135,
        0,
        0,
        0,
        0,
        1.00135,
        0,
        -1.3042400000000001,
        0,
        0,
        1
      ],
      "name": "echo"
    },
    {
      "children": [
        5,
        6,
        7,
        8,
        9
      ],
      "name": "Geode"
    },
    {
      "mesh": 0,
      "name": "echo_0"
    },
    {
      "mesh": 1,
      "name": "echo_1"
    },
    {
      "mesh": 2,
      "name": "echo_2"
    },
    {
      "mesh": 3,
      "name": "echo_3"
    },
    {
      "mesh": 4,
      "name": "echo_4"
    },
    {
      "children": [
        11
      ],
      "matrix": [
        1.00135,
        0,
        0,
        0,
        0,
        1.00135,
        0,
        0,
        0,
        0,
        1.00135,
        0,
        1.33867,
        0,
        0,
        1
      ],
      "name": "echo_dot"
    },
    {
      "children": [
        12,
        13,
        14,
        15,
        16
      ],
      "name": "Geode"
    },
    {
      "mesh": 5,
      "name": "echo_dot_0"
    },
    {
      "mesh": 6,
      "name": "echo_dot_1"
    },
    {
      "mesh": 7,
      "name": "echo_dot_2"
    },
    {
      "mesh": 8,
      "name": "echo_dot_3"
    },
    {
      "mesh": 9,
      "name": "echo_dot_4"
    },
    {
      "children": [
        18
      ],
      "matrix": [
        0.91288000000000002,
        -0.26222000000000001,
        0.31289000000000006,
        0,
        0.030290000000000004,
        0.80783000000000005,
        0.58864000000000016,
        0,
        -0.40711000000000003,
        -0.52788000000000002,
        0.74539000000000011,
        0,
        -6.5148399999999995,
        -4.3424799999999992,
        4.1083699999999999,
        1
      ],
      "name": "Sun"
    },
    {
      "name": "Sun"
    },
    {
      "children": [
        20
      ],
      "matrix": [
        0.52850999999999992,
        0.78778000000000004,
        0.3163700000000001,
        0,
        -0.43987000000000009,
        -0.064630000000000021,
        0.89573000000000014,
        0,
        0.72608000000000006,
        -0.61255999999999999,
        0.31236000000000008,
        0,
        6.0388600000000006,
        -2.7642100000000003,
        3.4419200000000001,
        1
      ],
      "name": "Sun.001"
    },
    {
      "name": "Sun.001"
    }
  ],
  "samplers": [
    {
      "magFilter": 9729,
      "minFilter": 9987,
      "wrapS": 10497,
      "wrapT": 10497
    }
  ],
  "scene": 0,
  "scenes": [
    {
      "name": "OSG_Scene",
      "nodes": [
        0
      ]
    }
  ],
  "textures": [
    {
      "sampler": 0,
      "source": 0
    },
    {
      "sampler": 0,
      "source": 1
    }
  ]
}

